<svg width="273" height="304" viewBox="0 0 273 304" fill="none" xmlns="http://www.w3.org/2000/svg">
<path fill-rule="evenodd" clip-rule="evenodd" d="M272.691 89.0857C272.691 83.9908 271.582 79.4866 269.362 75.6259C267.175 71.8285 263.899 68.6429 259.493 66.1218C243.295 56.8869 227.089 47.6645 210.882 38.4416C190.769 26.9957 170.654 15.5489 150.553 4.07627C140.768 -1.50382 131.283 -1.3034 121.573 4.36108C113.014 9.35404 84.1335 25.7677 57.5312 40.8863L57.5304 40.8868L57.5265 40.889C39.2257 51.2897 22.0041 61.0772 13.22 66.1113C4.33199 71.1956 0.0106699 78.9698 0.0106699 89.0751C0.00533496 109.887 0.00533496 130.696 0.00533496 151.506C0.00533496 172.315 0.00533496 193.124 0 213.936C0 218.915 1.05632 223.335 3.19031 227.143C5.37764 231.056 8.70666 234.326 13.2094 236.9C21.5505 241.674 37.4907 250.733 54.7393 260.535L54.7641 260.549L54.7768 260.556C82.1108 276.09 112.718 293.485 121.573 298.65C131.293 304.315 140.779 304.526 150.563 298.935C171.781 286.822 193.018 274.737 214.255 262.652L214.259 262.65C229.342 254.067 244.426 245.484 259.503 236.89C264.006 234.316 267.324 231.046 269.522 227.132C271.646 223.324 272.713 218.915 272.713 213.926C272.707 213.926 272.704 187.703 272.701 157.334V157.094C272.699 133.427 272.696 107.282 272.691 89.0857ZM137.085 51.3125C174.579 51.3125 207.325 71.4494 224.855 101.375L224.685 101.09L180.565 126.206C171.869 111.66 155.938 101.839 137.661 101.639H137.085C109.204 101.639 86.6051 123.98 86.6051 151.533C86.6051 160.541 89.0379 168.99 93.2632 176.29C101.959 191.311 118.316 201.437 137.085 201.437C155.806 201.437 172.145 191.35 180.853 176.374L224.909 201.606C207.57 231.278 175.272 251.352 138.216 251.753L137.085 251.763C99.4731 251.763 66.631 231.51 49.143 201.426C40.607 186.743 35.7202 169.718 35.7202 151.554C35.7202 96.1748 81.0994 51.3125 137.085 51.3125ZM180.853 176.374L180.853 176.374L181.066 176.005C180.996 176.128 180.925 176.252 180.853 176.374ZM215.422 136.891V122.683H208.231V136.891H193.858V144.001H208.231V158.21H193.858V165.319H208.231V179.528H215.422V165.319H229.795V179.528H236.986V165.319H251.359V158.21H236.986V144.001H251.359V136.891H236.986V122.683H229.795V136.891H215.422ZM215.433 144.001H229.805V158.21H215.433V144.001Z" fill="white"/>
</svg>
